<svg id="_50" data-name="50" xmlns="http://www.w3.org/2000/svg" viewBox="0 0 512 512"><defs><style>.cls-1{fill:#aa0dd1;}.cls-2{fill:#8d00af;}.cls-3{fill:#fff;}.cls-4{fill:#e52e44;}.cls-5{fill:#fa4654;}.cls-6{fill:#fb626e;}.cls-7{fill:#3e4e60;}.cls-8{fill:#c2aacf;}.cls-9{fill:#ebd9ea;}.cls-10{fill:#f9f2f9;}.cls-11{fill:#9175a7;}.cls-12{fill:#a583bb;}</style></defs><title>50-heart-icons</title><circle class="cls-1" cx="256" cy="256" r="256"/><path class="cls-2" d="M503,323.54C473.36,432.15,374,512,256,512,114.62,512,0,397.38,0,256a257.16,257.16,0,0,1,3.52-42.54,65,65,0,0,0,32.19.83c16.91-4,31.71-14.46,48.54-18.76,27.84-7.1,59.55,5.15,75.38,29.13,9.54,14.44,15.55,34.06,32.1,39.15,9.83,3,20.71-.5,29-6.6s14.49-14.51,20.79-22.64c13.33-17.21,28.24-34.21,48-43.25s45.66-8.08,60.72,7.63c6.82,7.13,10.8,16.45,14.18,25.72,13.89,38.09,13.6,74.48,32.5,110.35,3.68,7,15.14,18.94,22.81,20.7,13.27,3,22.94-11.51,32.89-20.8C465.83,322.62,485.81,318.23,503,323.54Z"/><path class="cls-3" d="M360.84,418.07H132L91.19,338.3A279.47,279.47,0,0,1,60.49,211V173.42H289.3V211A279.35,279.35,0,0,0,320,338.3Z"/><path class="cls-4" d="M216.27,233.93l-33.39,33.39a6.25,6.25,0,0,1-8.84,0l-27.71-27.71-5.68-5.68a22.71,22.71,0,0,1,0-32.13,22.32,22.32,0,0,1,3.48-2.86,22.73,22.73,0,0,1,28.65,2.86l5.68,5.68,5.68-5.68a22.72,22.72,0,0,1,32.13,32.13Z"/><path class="cls-5" d="M216.27,233.93,189.22,261a6.25,6.25,0,0,1-8.84,0l-27.71-27.71L147,227.59a22.72,22.72,0,0,1-2.86-28.65,22.73,22.73,0,0,1,28.65,2.86l5.68,5.68,5.68-5.68a22.72,22.72,0,0,1,32.13,32.13Z"/><ellipse class="cls-6" cx="207.38" cy="205.83" rx="5.76" ry="9.53" transform="translate(-81.48 249.83) rotate(-53.45)"/><ellipse class="cls-6" cx="216.45" cy="219.75" rx="3.64" ry="6.02" transform="translate(-29.93 34.17) rotate(-8.45)"/><rect class="cls-7" x="110.68" y="287.83" width="154.77" height="7" rx="3.5"/><rect class="cls-7" x="123.15" y="320.04" width="154.77" height="7" rx="3.5"/><rect class="cls-7" x="140.54" y="352.24" width="154.77" height="7" rx="3.5"/><rect class="cls-7" x="156.54" y="384.45" width="118.01" height="7" rx="3.06"/><path class="cls-8" d="M304.16,335l-23-8.38,90.62-249a12.26,12.26,0,0,1,15.7-7.33Z"/><path class="cls-9" d="M297.75,332.68l-16.61-6,90.62-249A12.21,12.21,0,0,1,380.43,70Z"/><path class="cls-8" d="M312.91,345.92a7.23,7.23,0,0,1-9.28,4.32l-31.88-11.6a7.25,7.25,0,0,1,5-13.62l31.88,11.61a7.22,7.22,0,0,1,4.09,3.74,7.44,7.44,0,0,1,.66,2.64A7.19,7.19,0,0,1,312.91,345.92Z"/><path class="cls-9" d="M313.34,343a7.25,7.25,0,0,1-7.74,1.83l-31.88-11.6a7.23,7.23,0,0,1-4.75-6.38,7.23,7.23,0,0,1,7.74-1.84l31.88,11.61a7.22,7.22,0,0,1,4.09,3.74A7.44,7.44,0,0,1,313.34,343Z"/><path class="cls-9" d="M440.45,120.75,409,207.1a4.83,4.83,0,0,1-6.18,2.89L376,200.23a4.83,4.83,0,0,0-3.3,9.07l26.82,9.76a4.83,4.83,0,0,1,2.89,6.18L396,242.81a68,68,0,0,1-35.19,38.4l-16.18,7.55,33,4.51-50.14,10.8,28.34,10.32-46.1,2.88L387.46,70.35,423,83.28A29.24,29.24,0,0,1,440.45,120.75Z"/><path class="cls-10" d="M371.74,197.85l-1.91,5.26a4.83,4.83,0,0,0,2.88,6.19l26.82,9.76a4.82,4.82,0,0,1,2.89,6.18l-4.49,12.32A68,68,0,0,1,362.75,276l-12.79,6a9,9,0,0,0-4.68,5.1l-.63,1.74,33,4.51L335,298.18a9,9,0,0,0-7.46,5.89h0l28.34,10.32L311.67,312l76-241.57L423,83.28a29.24,29.24,0,0,1,17.47,37.47l-29.52,81.1a4.82,4.82,0,0,1-6.18,2.88L377.92,195A4.82,4.82,0,0,0,371.74,197.85Z"/><ellipse class="cls-3" cx="419.7" cy="118.95" rx="23.79" ry="13.28" transform="translate(164.38 472.66) rotate(-70)"/><ellipse class="cls-3" cx="402.51" cy="166.21" rx="17.45" ry="7.15" transform="translate(108.66 487.59) rotate(-70)"/><ellipse class="cls-10" cx="299.51" cy="294.26" rx="17.36" ry="4.24" transform="translate(-79.44 475.07) rotate(-70)"/><ellipse class="cls-10" cx="311.6" cy="261.05" rx="12.28" ry="3.21" transform="translate(-40.28 464.57) rotate(-70)"/><path class="cls-11" d="M276.18,340.25l-10,27.47a3.42,3.42,0,0,0,2,4.38l.49.18a3.41,3.41,0,0,1,2,4.37l-4.42,12.14,9.72,3.53,4.42-12.14a3.42,3.42,0,0,1,4.37-2h0a3.42,3.42,0,0,0,4.37-2l10-27.47Zm8.11,28.89a4.36,4.36,0,0,1-3.37.14l-4-1.45a4.41,4.41,0,0,1,3-8.28l4,1.46a4.41,4.41,0,0,1,.35,8.13Z"/><path class="cls-12" d="M276.18,340.25l-10,27.47a3.42,3.42,0,0,0,2,4.38l.49.18a3.41,3.41,0,0,1,2,4.37l-4.42,12.14,4.34,1.58,4.42-12.14a3.42,3.42,0,0,1,4.37-2,3.41,3.41,0,0,0,4.39-2.05l2.72-7.49a4.38,4.38,0,0,1-5.64,2.63l-4-1.45a4.41,4.41,0,0,1,3-8.28l4,1.46a4.4,4.4,0,0,1,2.62,5.64l7.27-20Z"/></svg>